<?xml version="1.0" encoding="utf-8"?>
<!-- Generator: Adobe Illustrator 23.0.1, SVG Export Plug-In . SVG Version: 6.00 Build 0)  -->
<svg version="1.1" id="Layer_1" xmlns="http://www.w3.org/2000/svg" xmlns:xlink="http://www.w3.org/1999/xlink" x="0px" y="0px"
	 viewBox="0 0 120 77.36" style="enable-background:new 0 0 120 77.36;" xml:space="preserve">
<style type="text/css">
	.st0{fill:#004C59;}
</style>
<g>
	<path class="st0" d="M60.98,20.55c-0.09,0.12-0.07,0.36,0.17,0.36c1.53,0.02,3.05,0.06,4.54,0.14
		c27.84,1.37,49.55,12.53,49.55,26.09c0,14.49-24.77,26.23-55.33,26.23c-30.56,0-55.33-11.74-55.33-26.23c0-3.08,0.75-6.4,2.8-9.14
		c0,0,0.09-0.13-0.06-0.24c-0.15-0.1-0.27,0.05-0.27,0.05c-3,3.41-4.66,7.17-4.66,11.11c0,15.71,26.33,28.44,58.81,28.44
		S120,64.63,120,48.92c0-14.97-23.91-27.24-54.27-28.36c-1.5-0.05-3.01-0.08-4.53-0.08C61.19,20.47,61.04,20.46,60.98,20.55"/>
	<path class="st0" d="M107.81,41.33c0,0.6-0.43,1-0.93,1v0c-0.52,0-0.93-0.4-0.93-1c0-0.6,0.42-1,0.93-1
		C107.38,40.33,107.81,40.73,107.81,41.33 M108.19,41.33c0-0.82-0.62-1.3-1.3-1.3c-0.69,0-1.31,0.48-1.31,1.3
		c0,0.82,0.61,1.3,1.31,1.3C107.57,42.63,108.19,42.15,108.19,41.33 M106.67,41.43h0.14l0.32,0.59h0.35l-0.36-0.61
		c0.19-0.02,0.34-0.11,0.34-0.37c0-0.32-0.22-0.42-0.58-0.42h-0.52v1.4h0.3V41.43z M106.67,41.2v-0.34h0.21
		c0.11,0,0.27,0.01,0.27,0.16c0,0.15-0.08,0.18-0.21,0.18H106.67z"/>
	<path class="st0" d="M99.12,43.24c-3.53,0-5.8,3.7-5.8,6.97c0,3.28,2.26,6.97,5.8,6.97c3.53,0,5.8-3.7,5.8-6.97
		C104.92,46.94,102.65,43.24,99.12,43.24 M108.22,50.18c0,4.89-3.49,8.86-9.08,8.86c-5.59,0-9.08-3.97-9.08-8.86
		c0-4.89,4.07-8.86,9.08-8.86C104.15,41.32,108.22,45.29,108.22,50.18"/>
	<path class="st0" d="M40.04,37.01c0,0-6.21-4.93-10.59-5.53c-4.23-0.6-8.15,0.46-12.02,3.96c-4.14,3.68-7.14,12.06-1.62,19.61
		c4.55,6.26,13.58,6.49,18.73,3.92c5.11-2.62,6.4-5.22,6.4-5.22L41,50.6c0,0-2.58,5.28-9.39,6.57c-5.43,1.01-11.25-1.7-13.53-6.73
		c-1.85-4.08-0.62-11.02,2.81-13.99c3.48-3.02,7.23-3.96,11.28-2.25c4.1,1.66,4.88,4.84,4.46,6.36c-0.64,2.3-0.97,2.35-0.97,2.35
		l0.6,0.37L40.04,37.01z"/>
	<path class="st0" d="M90.17,44.76c0,0-0.51,0.94-0.88,1.7c-0.39,0.82-0.87,2.16-0.87,2.16h-0.46c0,0,0.23-1.84-0.55-3.18
		c-0.83-1.24-2.25-2.25-3.68-2.26c-2.01-0.01-3.82,0.92-5.11,3.03c-1.43,2.44-1.19,4.69-0.69,6.4c0.84,2.85,3.63,4.51,6.49,4.19
		c3.87-0.37,5.53-2.67,5.53-2.67l0.69,1.2c0,0-0.78,1.01-2.21,2.02c-1.15,0.83-2.86,1.79-5.94,1.66c-3.68-0.14-6.03-1.94-7.22-4.61
		c-1.11-2.35-1.43-6.16,0.74-9.43c2.03-2.9,4.71-3.66,7.29-3.65c2.59,0.01,4.81,1.6,5.41,2.05C89.51,44.01,90.17,44.76,90.17,44.76"
		/>
	<path class="st0" d="M64.1,56.81c-1.61-0.69-2.51-2.14-2.3-4.01c0.08-0.75,0.36-1.57,1-2.39c2.21-2.9,7.24-1.18,7.24-1.18l0,6.56
		C70.04,55.79,66.41,57.73,64.1,56.81 M75.71,56.86c0,0-0.74,0.78-1.33,0.6c-0.65-0.19-0.77-0.63-0.83-0.96
		c-0.04-0.19-0.41-7.86-0.44-8.4c0-4.02-3.1-6.91-6.91-6.91c-0.92,0-1.8,0.18-2.6,0.51c-0.21,0.08-0.43,0.19-0.66,0.3
		c-1.63,0.76-3.45,1.65-3.45,1.65l1.55,2.28c0,0,0.34-0.39,0.87-0.88c0.36-0.33,1.14-1.21,2.42-1.69c0.45-0.17,0.98-0.24,1.5-0.24
		c2.87,0,4.2,1.86,4.2,4.17l0.01,0.4c0,0-3.2-0.57-5.43-0.27c-1.93,0.27-4.47,0.87-5.66,3.45c-0.27,0.6-0.46,1.24-0.55,1.93
		c-0.28,2.12,0.5,4.42,2.9,5.66c2.35,1.2,4.14,0.88,5.8,0.42c1.34-0.41,3.22-1.61,3.22-1.61s0.65,1.71,1.98,1.8
		c1.2,0.08,1.93-0.23,2.58-0.64c0.69-0.46,1.2-1.2,1.2-1.2L75.71,56.86z"/>
	<path class="st0" d="M58.37,58.78C58.37,58.78,58.37,58.78,58.37,58.78L58.37,58.78l-0.02-0.01c-0.12-0.05-0.8-0.33-0.97-0.96
		c-0.09-0.23-0.08-1.8-0.08-1.8s-0.04-5.26,0-6.94c0.09-2.39-0.37-3.73-0.74-4.61c-0.32-0.64-1.75-2.99-5.29-3.08
		c-3.31-0.09-5.85,3.63-5.85,3.63l0.01-12.48c0,0,0.09-1.2-0.32-1.75c-0.18-0.28-0.46-0.37-0.46-0.37l-3.59,5.84
		c0,0,0.51,0,0.83,0.28c0.32,0.37,0.27,1.34,0.27,1.34l-0.01,18.12c0,0,0.01,1.57-0.08,1.8c-0.18,0.69-0.98,0.96-0.98,0.97h0v0.46
		h5.41v-0.46h0c0,0-0.8-0.27-0.99-0.96c-0.09-0.23-0.08-1.8-0.08-1.8l0-6.94c0,0-0.03-0.53,1.34-2.35c0.92-1.23,1.13-1.48,2.21-2.44
		c0.71-0.63,2.49-1.43,3.87-0.18c1.34,1.24,1.19,3.87,1.19,3.87v8.05c0,0-0.01,1.57-0.1,1.8c-0.17,0.63-0.85,0.91-0.97,0.96h-0.02
		v0.01l0,0h0v0.45h5.42L58.37,58.78L58.37,58.78z"/>
	<path class="st0" d="M41.53,27.94c-1.82,0.57-4.07,0.21-4.07,0.21c1.2-0.26,3.91-2.34,4.12-2.55c0.21-0.21,0.47-0.63,0.31-0.78
		c-0.16-0.16-0.34,0.02-0.34,0.02c-1.25,1.11-4.03,2.13-4.03,2.13c0.39-0.3,0.92-0.75,2.39-2.85c1.47-2.1,0.13-2.59,0.13-2.59
		c-5.51-1.24-10.01,2.02-10.69,2.56c-0.06,0.05-0.08,0.1-0.08,0.1c-0.19,0.74,0.74,0.58,0.74,0.58c2.66-0.57,4.69-0.26,5.58-0.21
		c0.89,0.05,0.62,0.89,0.16,1.82c-0.47,0.94-2.2,2.17-2.87,2.45c-0.59,0.25-0.28,0.56-0.28,0.56c0.06,0.06,0.18,0.03,0.25,0.03
		c0.04,0,0.11,0,0.17,0c2.19,0.24,5.28,2.69,5.28,2.69s0.58,0.61,0.68,0.05c0.13-0.79-2.19-2.66-2.19-2.66
		c3.07,0.1,4.74-0.89,4.74-0.89s0.47-0.21,0.42-0.47C41.9,27.89,41.53,27.94,41.53,27.94"/>
	<path class="st0" d="M65.23,28.26c-1.25-2.29-3.13-2.76-3.13-2.76c0.81,0.03,1.72-1.12,1.83-1.28c0.1-0.16,0.18-0.42,0.08-0.5
		c-0.1-0.08-0.29,0.11-0.29,0.11c-1.38,1.43-3.73,1.02-5.34,0.29c-1.62-0.73-3.52-0.68-3.52-0.68s2.63-1.75,2.95-3.93
		c0.31-2.19-0.63-1.56-0.63-1.56c-1.43,1.98-3,2.06-3.31,2.14c-0.31,0.08-1.49,0.13-1.67,0.83c-0.18,0.7-1.02,1.67-1.93,2.35
		c-0.65,0.48-0.25,0.96-0.25,0.96c0.44,0.56,1.24,0.94,1.57,1.02c0.34,0.08,1.1-0.5,4.61,0.03c3.52,0.52,5.74,4.69,5.81,5.32
		c0.03,0.25,0.09,0.38,0.15,0.45c0.04,0.03,0.15,0.1,0.21,0c0.67-1.92-0.83-4.15-0.83-4.15c2.29,0.42,3.07,1.43,3.15,1.49
		c0.08,0.05,0.32,0.26,0.45,0.18C65.28,28.47,65.23,28.26,65.23,28.26"/>
	<path class="st0" d="M68.11,1.89c-0.1-1.39-1.03-1.77-1.52-1.88C66.41-0.01,66.21,0,66.08,0.01c-4.82,0.76-7.29,4.69-7.31,4.73
		c-0.67,0.91-1.5,3.5-1.9,4.81l0-0.01c-0.28,1.06-0.7,1.65-0.7,1.65c-1.23,1.94-5.16,6.49-13.92,4.56
		c-13.11-2.89-20.61,7.35-20.68,7.45c-5.27,6.59-10.39,10.13-15.21,10.51c-3.91,0.31-6.16-1.68-6.18-1.7
		c-0.04-0.04-0.11-0.04-0.15,0c-0.04,0.04-0.04,0.11,0,0.15c1.86,2.03,4.15,3.09,6.78,3.15c7.38,0.17,15.27-7.6,15.35-7.68
		c12.38-11.42,22.71-8.68,22.82-8.65c10.91,2.09,14.39-3.88,15.18-5.73h0c0,0,0-0.01,0.01-0.02c0.03-0.07,0.06-0.14,0.08-0.2
		c0.06-0.17,0.18-0.34,0.32-0.46c0.61-0.51,1.29-0.98,1.96-1.43c1.2-0.82,2.44-1.66,3.27-2.78c1.38-1.86,2.32-4.74,2.32-6.25
		C68.12,2.04,68.11,1.96,68.11,1.89"/>
	<path class="st0" d="M32.31,8.61c-1.25-0.87-5.96,2.52-5.96,2.52s-0.24,0.15-0.24,0.09c0-0.06,0.12-0.3,0.12-0.3
		c0.79-1.36,1.99-3.12,1.52-3.48c-0.47-0.36-2.29,2.33-2.52,2.76c-0.23,0.43-0.35,0.29-0.35,0.29c0-1.35-0.3-2.64-0.47-3.02
		C24.26,7.13,24.14,7.13,24,7.13c-0.14,0-0.15,0.2-0.15,0.2c0.43,2.83-1.06,5.65-1.23,5.84c-0.23,0.24-0.03,0.38-0.03,0.38
		c1.57,0.57,4.98-1.32,6.12-0.89c1.15,0.43-1.5,3.61-1.5,3.61c-0.03,0.04-0.05,0.07-0.06,0.1c-0.01,0.03-0.02,0.05-0.02,0.08
		c0,0.15,0.11,0.27,0.26,0.26c0.04,0,0.07-0.01,0.11-0.02c1.23-0.33,3.54-1.86,3.88-2.25C31.72,14.02,33.56,9.47,32.31,8.61"/>
	<path class="st0" d="M55.36,4.89c-0.19-0.1-0.3,0.16-0.3,0.16c-0.81,1.67-2.12,1.75-2.12,1.75c1.85-1.8,1.13-4.03,1.05-4.16
		c-0.05-0.08-0.14-0.06-0.19-0.03c-0.05,0.02-0.05,0.15-0.05,0.16c0,2.08-1.85,3.45-1.85,3.45c0.32-2.15-0.34-2.91-0.48-3.09
		c-0.18-0.23-0.24,0-0.24,0c0.16,3.95-1,5.08-2.82,5.99c-1.83,0.91-3.71,1.24-3.9,1.94c-0.19,0.7,0.35,0.83,2.52,1.42
		c1.37,0.37,1.89,0.92,2.09,1.29c0,0,0,0,0,0c0.05,0.08,0.09,0.21,0.11,0.33c0.01,0.06,0.05,0.11,0.14,0.12c0,0,0,0,0.01,0
		c0.22,0.04,0.72-0.09,1.65-0.93c1.34-1.21,0.87-1.94,0.87-1.94c-0.75-1.18-2.26-1.16-2.26-1.16c4.43-1.59,5.54-4.47,5.65-4.7
		C55.35,5.25,55.47,4.94,55.36,4.89"/>
</g>
<g>
</g>
<g>
</g>
<g>
</g>
<g>
</g>
<g>
</g>
<g>
</g>
</svg>
